# xmcd
#
# Track frame offsets:
#	150
#	23400
#	51600
#	63750
#	110175
#	124800
#	151200
#	169650
#	200550
#	217200
#	237450
#	258750
#	265950
#
# Disc length: 3741 seconds
#
# Revision: 2
# Processed by: cddbd v1.5.2PL0 Copyright (c) Steve Scherf et al.
# Submitted via: audiograbber 1.83.01
#
DISCID=bf0e9b0d
DTITLE=Das Dritte Ohr - Schwarz auf weiss Live
DYEAR=1994
DGENRE=Blues
TTITLE0=Zahltag
TTITLE1=Yo-Yo-Woman
TTITLE2=Vollmond
TTITLE3=Rita, Rita
TTITLE4=Scratch My Back
TTITLE5=Shake Like A Leaf On A Tree
TTITLE6=Medley: Willie and The Handjive - Shake A While
TTITLE7=Plapper-Popper
TTITLE8=Snatch It Back and Hold It
TTITLE9=Himmel oder Hölle
TTITLE10=Let's Work Together
TTITLE11=Brüder and Schwestern
TTITLE12=Shake Your Moneymaker
EXTD=
EXTT0=
EXTT1=
EXTT2=
EXTT3=
EXTT4=
EXTT5=
EXTT6=
EXTT7=
EXTT8=
EXTT9=
EXTT10=
EXTT11=
EXTT12=
PLAYORDER=
